<svg width="42" height="42" viewBox="0 0 42 42" fill="none" xmlns="http://www.w3.org/2000/svg">
<path d="M37.2291 4.79166C31.0625 -1.35417 21.0625 -1.35417 14.9375 4.79166C10.625 9.0625 9.33331 15.2083 11 20.625L1.20831 30.4167C0.520813 31.125 0.0416459 32.5208 0.187479 33.5208L0.812479 38.0625C1.04165 39.5625 2.43748 40.9792 3.93748 41.1875L8.47915 41.8125C9.47915 41.9583 10.875 41.5 11.5833 40.7708L13.2916 39.0625C13.7083 38.6667 13.7083 38 13.2916 37.5833L9.24998 33.5417C8.64581 32.9375 8.64581 31.9375 9.24998 31.3333C9.85415 30.7292 10.8541 30.7292 11.4583 31.3333L15.5208 35.3958C15.9166 35.7917 16.5833 35.7917 16.9791 35.3958L21.3958 31C26.7916 32.6875 32.9375 31.375 37.2291 27.1042C43.375 20.9583 43.375 10.9375 37.2291 4.79166ZM26.2083 21C23.3333 21 21 18.6667 21 15.7917C21 12.9167 23.3333 10.5833 26.2083 10.5833C29.0833 10.5833 31.4166 12.9167 31.4166 15.7917C31.4166 18.6667 29.0833 21 26.2083 21Z" fill="#FF7380"/>
</svg>
