<svg width="32" height="32" viewBox="0 0 32 32" fill="none" xmlns="http://www.w3.org/2000/svg">
<path d="M16.2128 15.4933C16.1728 15.4933 16.1461 15.4933 16.1061 15.4933C16.0395 15.48 15.9461 15.48 15.8661 15.4933C11.9995 15.3733 9.07947 12.3333 9.07947 8.58666C9.07947 4.77332 12.1861 1.66666 15.9995 1.66666C19.8128 1.66666 22.9195 4.77332 22.9195 8.58666C22.9061 12.3333 19.9728 15.3733 16.2528 15.4933C16.2395 15.4933 16.2261 15.4933 16.2128 15.4933ZM15.9995 3.66666C13.2928 3.66666 11.0795 5.87999 11.0795 8.58666C11.0795 11.2533 13.1595 13.4 15.8128 13.4933C15.8795 13.48 16.0661 13.48 16.2395 13.4933C18.8528 13.3733 20.9061 11.2267 20.9195 8.58666C20.9195 5.87999 18.7061 3.66666 15.9995 3.66666Z" fill="#FF7380"/>
<path d="M16.2261 30.0667C13.6128 30.0667 10.9861 29.4 8.99948 28.0667C7.14615 26.84 6.13281 25.16 6.13281 23.3333C6.13281 21.5067 7.14615 19.8133 8.99948 18.5733C12.9995 15.92 19.4795 15.92 23.4528 18.5733C25.2928 19.8 26.3195 21.48 26.3195 23.3067C26.3195 25.1333 25.3061 26.8267 23.4528 28.0667C21.4528 29.4 18.8395 30.0667 16.2261 30.0667ZM10.1061 20.2533C8.82615 21.1067 8.13281 22.2 8.13281 23.3467C8.13281 24.48 8.83948 25.5733 10.1061 26.4133C13.4261 28.64 19.0261 28.64 22.3461 26.4133C23.6261 25.56 24.3195 24.4667 24.3195 23.32C24.3195 22.1867 23.6128 21.0933 22.3461 20.2533C19.0261 18.04 13.4261 18.04 10.1061 20.2533Z" fill="#FF7380"/>
</svg>
