<svg width="32" height="32" viewBox="0 0 32 32" fill="none" xmlns="http://www.w3.org/2000/svg">
<path d="M21.2802 28.4266C21.0268 28.4266 20.7735 28.3333 20.5735 28.1333L18.5468 26.1066C18.1602 25.72 18.1602 25.08 18.5468 24.6933C18.9335 24.3066 19.5735 24.3066 19.9602 24.6933L21.2802 26.0133L24.6268 22.6666C25.0135 22.28 25.6535 22.28 26.0402 22.6666C26.4268 23.0533 26.4268 23.6933 26.0402 24.08L21.9868 28.1333C21.7868 28.3333 21.5335 28.4266 21.2802 28.4266Z" fill="#FF7380"/>
<path d="M16.2135 15.4933C16.1735 15.4933 16.1469 15.4933 16.1069 15.4933C16.0402 15.48 15.9469 15.48 15.8669 15.4933C12.0002 15.3733 9.0802 12.3333 9.0802 8.58666C9.06687 6.74666 9.78687 5.01332 11.0935 3.70666C12.4002 2.39999 14.1335 1.66666 15.9869 1.66666C19.8002 1.66666 22.9069 4.77332 22.9069 8.58666C22.9069 12.3333 19.9869 15.36 16.2535 15.4933C16.2402 15.4933 16.2269 15.4933 16.2135 15.4933ZM15.9869 3.66666C14.6669 3.66666 13.4402 4.18666 12.5069 5.10666C11.5869 6.03999 11.0802 7.26666 11.0802 8.57332C11.0802 11.24 13.1602 13.4 15.8135 13.48C15.8935 13.4667 16.0669 13.4667 16.2402 13.48C18.8669 13.36 20.9069 11.2133 20.9069 8.57332C20.9069 5.87999 18.6935 3.66666 15.9869 3.66666Z" fill="#FF7380"/>
<path d="M15.9869 30.08C13.2669 30.08 10.6935 29.3733 8.74685 28.0667C6.89352 26.8267 5.88019 25.1333 5.88019 23.3067C5.88019 21.48 6.90685 19.8 8.74685 18.5733C12.7335 15.9067 19.2135 15.9067 23.2002 18.5733C23.6535 18.88 23.7869 19.5067 23.4802 19.96C23.1735 20.4267 22.5469 20.5467 22.0935 20.24C18.7735 18.0267 13.1735 18.0267 9.85352 20.24C8.57352 21.0933 7.88019 22.1733 7.88019 23.3067C7.88019 24.44 8.57352 25.5467 9.85352 26.4C11.4669 27.48 13.6402 28.0667 15.9735 28.0667C16.5202 28.0667 16.9735 28.52 16.9735 29.0667C16.9735 29.6133 16.5335 30.08 15.9869 30.08Z" fill="#FF7380"/>
</svg>
