<svg width="33" height="33" viewBox="0 0 33 33" fill="none" xmlns="http://www.w3.org/2000/svg">
<path d="M24.4998 11.0467C24.4598 11.0467 24.4331 11.0467 24.3931 11.0467H24.3264C21.8064 10.9667 19.9264 9.02003 19.9264 6.62003C19.9264 4.16669 21.9264 2.18002 24.3664 2.18002C26.8064 2.18002 28.8064 4.18003 28.8064 6.62003C28.7931 9.03336 26.9131 10.98 24.5131 11.06C24.5131 11.0467 24.5131 11.0467 24.4998 11.0467ZM24.3664 4.1667C23.0198 4.1667 21.9264 5.26003 21.9264 6.6067C21.9264 7.9267 22.9531 8.99337 24.2731 9.0467C24.2864 9.03337 24.3931 9.03337 24.5131 9.0467C25.8064 8.98004 26.8064 7.91337 26.8198 6.6067C26.8198 5.26003 25.7264 4.1667 24.3664 4.1667Z" fill="#FF7380"/>
<path d="M24.5133 20.8734C23.9933 20.8734 23.4733 20.8334 22.9533 20.74C22.4067 20.6467 22.0467 20.1267 22.14 19.58C22.2333 19.0334 22.7533 18.6734 23.3 18.7667C24.94 19.0467 26.6733 18.74 27.8333 17.9667C28.46 17.5534 28.7933 17.0334 28.7933 16.5134C28.7933 15.9934 28.4467 15.4867 27.8333 15.0734C26.6733 14.3 24.9133 13.9934 23.26 14.2867C22.7133 14.3934 22.1933 14.02 22.1 13.4734C22.0067 12.9267 22.3667 12.4067 22.9133 12.3134C25.0867 11.9267 27.34 12.34 28.94 13.4067C30.1133 14.1934 30.7933 15.3134 30.7933 16.5134C30.7933 17.7 30.1267 18.8334 28.94 19.6334C27.7267 20.4334 26.1533 20.8734 24.5133 20.8734Z" fill="#FF7380"/>
<path d="M8.45999 11.0467C8.44665 11.0467 8.43332 11.0467 8.43332 11.0467C6.03332 10.9667 4.15332 9.01999 4.13998 6.61999C4.13998 4.16665 6.13999 2.16666 8.57999 2.16666C11.02 2.16666 13.02 4.16666 13.02 6.60666C13.02 9.01999 11.14 10.9667 8.73999 11.0467L8.45999 10.0467L8.55332 11.0467C8.52665 11.0467 8.48665 11.0467 8.45999 11.0467ZM8.59332 9.04666C8.67332 9.04666 8.73999 9.04665 8.81999 9.05999C10.0067 9.00665 11.0467 7.93999 11.0467 6.61999C11.0467 5.27332 9.95332 4.17998 8.60665 4.17998C7.25999 4.17998 6.16665 5.27332 6.16665 6.61999C6.16665 7.92665 7.17998 8.97999 8.47332 9.05999C8.48665 9.04665 8.53998 9.04666 8.59332 9.04666Z" fill="#FF7380"/>
<path d="M8.44666 20.8734C6.80666 20.8734 5.23332 20.4334 4.01999 19.6334C2.84666 18.8467 2.16666 17.7134 2.16666 16.5134C2.16666 15.3267 2.84666 14.1934 4.01999 13.4067C5.61999 12.34 7.87332 11.9267 10.0467 12.3134C10.5933 12.4067 10.9533 12.9267 10.86 13.4734C10.7667 14.02 10.2467 14.3934 9.69999 14.2867C8.04666 13.9934 6.29999 14.3 5.12666 15.0734C4.49999 15.4867 4.16666 15.9934 4.16666 16.5134C4.16666 17.0334 4.51332 17.5534 5.12666 17.9667C6.28666 18.74 8.01999 19.0467 9.65999 18.7667C10.2067 18.6734 10.7267 19.0467 10.82 19.58C10.9133 20.1267 10.5533 20.6467 10.0067 20.74C9.48666 20.8334 8.96666 20.8734 8.44666 20.8734Z" fill="#FF7380"/>
<path d="M16.4998 21.0067C16.4598 21.0067 16.4331 21.0067 16.3931 21.0067H16.3264C13.8064 20.9267 11.9264 18.98 11.9264 16.58C11.9264 14.1267 13.9264 12.14 16.3664 12.14C18.8064 12.14 20.8064 14.14 20.8064 16.58C20.7931 18.9933 18.9131 20.94 16.5131 21.02C16.5131 21.0067 16.5131 21.0067 16.4998 21.0067ZM16.3664 14.1267C15.0198 14.1267 13.9264 15.22 13.9264 16.5667C13.9264 17.8867 14.9531 18.9533 16.2731 19.0067C16.2864 18.9933 16.3931 18.9933 16.5131 19.0067C17.8064 18.94 18.8064 17.8733 18.8198 16.5667C18.8198 15.2333 17.7264 14.1267 16.3664 14.1267Z" fill="#FF7380"/>
<path d="M16.4997 30.8466C14.8997 30.8466 13.2997 30.4333 12.0597 29.5933C10.8864 28.8066 10.2064 27.6866 10.2064 26.4866C10.2064 25.3 10.8731 24.1533 12.0597 23.3666C14.5531 21.7133 18.4597 21.7133 20.9397 23.3666C22.1131 24.1533 22.7931 25.2733 22.7931 26.4733C22.7931 27.66 22.1264 28.8066 20.9397 29.5933C19.6997 30.42 18.0997 30.8466 16.4997 30.8466ZM13.1664 25.0466C12.5397 25.46 12.2064 25.98 12.2064 26.5C12.2064 27.02 12.5531 27.5266 13.1664 27.94C14.9664 29.1533 18.0197 29.1533 19.8197 27.94C20.4464 27.5266 20.7797 27.0066 20.7797 26.4866C20.7797 25.9666 20.4331 25.46 19.8197 25.0466C18.0331 23.8333 14.9797 23.8466 13.1664 25.0466Z" fill="#FF7380"/>
</svg>
