<svg width="24" height="24" viewBox="0 0 24 24" fill="none" xmlns="http://www.w3.org/2000/svg">
<path d="M15 3.79508C15.5523 3.79508 16 4.2428 16 4.79508C16 5.30792 15.614 5.73059 15.1166 5.78835L15 5.79508H3V19.7951H18V13.7951C18 13.2428 18.4477 12.7951 19 12.7951C19.5128 12.7951 19.9355 13.1811 19.9933 13.6785L20 13.7951V19.7951C20 20.8494 19.1841 21.7132 18.1493 21.7896L18 21.7951H3C1.94564 21.7951 1.08183 20.9792 1.00549 19.9443L1 19.7951V5.79508C1 4.74072 1.81588 3.87692 2.85074 3.80057L3 3.79508H15ZM20.1969 3.11129L20.3301 3.17287L20.8994 3.46929C21.6469 3.8585 22.2735 4.45253 22.703 5.17513L22.8258 5.39569L23.1222 5.96501C23.396 6.49084 23.3394 7.10681 22.9894 7.53804L22.8959 7.64184L14.5852 15.9525C14.4172 16.1205 14.2079 16.2406 13.9769 16.3029L13.8358 16.3333L11.304 16.7437C10.5163 16.8715 9.7384 16.3296 9.56648 15.5336C9.5373 15.3984 9.52711 15.2611 9.53604 15.1257L9.55134 14.991L9.96182 12.4592C10.0006 12.2204 10.0991 11.9992 10.2476 11.8155L10.3426 11.7099L18.6532 3.3992C19.0518 3.00067 19.658 2.89233 20.1969 3.11129ZM17.3173 6.85784L11.4032 12.7705L11.3748 12.9517L13.3448 14.9217L13.5245 14.8919L19.4387 8.97916L17.3173 6.85784ZM19.7139 4.45986L18.3207 5.85445L20.442 7.97577L21.8352 6.58118L21.5388 6.01186C21.2908 5.53545 20.9151 5.13441 20.4583 4.85519L20.2832 4.75628L19.7139 4.45986Z" fill="#FF7380"/>
</svg>
