<svg width="32" height="32" viewBox="0 0 32 32" fill="none" xmlns="http://www.w3.org/2000/svg">
<path d="M21.08 26.9067C20.7333 26.9067 20.3733 26.8933 19.9867 26.8533C19.2933 26.8 18.5067 26.6667 17.6933 26.4667L15.4533 25.9333C9.30667 24.48 7.29334 21.2267 8.73334 15.0933L10.04 9.50667C10.3333 8.24 10.68 7.21333 11.1067 6.36C13.4 1.62667 17.7867 2.05333 20.9067 2.78667L23.1333 3.30667C26.2533 4.04 28.2267 5.2 29.3333 6.97333C30.4267 8.74667 30.6 11.0267 29.8667 14.1467L28.56 19.72C27.4133 24.6 25.0267 26.9067 21.08 26.9067ZM17.4933 4.33333C15.2667 4.33333 13.8533 5.25333 12.9067 7.22667C12.56 7.94667 12.2533 8.84 11.9867 9.96L10.68 15.5467C9.49334 20.5867 10.8667 22.7867 15.9067 23.9867L18.1467 24.52C18.8667 24.6933 19.5467 24.8 20.16 24.8533C23.7867 25.2133 25.5867 23.6267 26.6 19.2667L27.9067 13.6933C28.5067 11.12 28.4267 9.32 27.6267 8.02667C26.8267 6.73333 25.2533 5.85333 22.6667 5.25333L20.44 4.73333C19.3333 4.46667 18.3467 4.33333 17.4933 4.33333Z" fill="#FF7380"/>
<path d="M11.1067 29.6667C7.68 29.6667 5.49333 27.6133 4.09333 23.28L2.38666 18.0133C0.493331 12.1467 2.18666 8.84001 8.02666 6.94667L10.1333 6.26667C10.8267 6.05334 11.3467 5.90667 11.8133 5.82667C12.2 5.74667 12.5733 5.89334 12.8 6.20001C13.0267 6.50667 13.0667 6.90667 12.9067 7.25334C12.56 7.96001 12.2533 8.85334 12 9.97334L10.6933 15.56C9.50666 20.6 10.88 22.8 15.92 24L18.16 24.5333C18.88 24.7067 19.56 24.8133 20.1733 24.8667C20.6 24.9067 20.9467 25.2 21.0667 25.6133C21.1733 26.0267 21.0133 26.4533 20.6667 26.6933C19.7867 27.2933 18.68 27.8 17.28 28.2533L15.1733 28.9467C13.64 29.4267 12.3067 29.6667 11.1067 29.6667ZM10.3733 8.29334L8.65333 8.85334C3.89333 10.3867 2.76 12.6267 4.29333 17.4L6 22.6667C7.54666 27.4267 9.78666 28.5733 14.5467 27.04L16.6533 26.3467C16.7333 26.32 16.8 26.2933 16.88 26.2667L15.4667 25.9333C9.32 24.48 7.30666 21.2267 8.74666 15.0933L10.0533 9.50667C10.1467 9.08001 10.2533 8.66667 10.3733 8.29334Z" fill="#FF7380"/>
<path d="M23.32 14.0133C23.24 14.0133 23.16 14 23.0667 13.9867L16.6 12.3467C16.0667 12.2133 15.7467 11.6667 15.88 11.1333C16.0133 10.6 16.56 10.28 17.0933 10.4133L23.56 12.0533C24.0933 12.1867 24.4133 12.7333 24.28 13.2667C24.1733 13.7067 23.76 14.0133 23.32 14.0133Z" fill="#FF7380"/>
<path d="M19.4133 18.52C19.3333 18.52 19.2533 18.5067 19.16 18.4933L15.28 17.5067C14.7467 17.3733 14.4267 16.8267 14.56 16.2933C14.6933 15.76 15.24 15.44 15.7733 15.5733L19.6533 16.56C20.1867 16.6933 20.5067 17.24 20.3733 17.7733C20.2667 18.2267 19.8667 18.52 19.4133 18.52Z" fill="#FF7380"/>
</svg>
