<svg width="42" height="42" viewBox="0 0 42 42" fill="none" xmlns="http://www.w3.org/2000/svg">
<path d="M41.6667 20.8333C41.6667 9.35417 32.3125 0 20.8333 0C9.35417 0 0 9.35417 0 20.8333C0 26.875 2.60417 32.3125 6.72917 36.125C6.72917 36.1458 6.72917 36.1458 6.70833 36.1667C6.91667 36.375 7.16667 36.5417 7.375 36.7292C7.5 36.8333 7.60417 36.9375 7.72917 37.0208C8.10417 37.3333 8.52083 37.625 8.91667 37.9167C9.0625 38.0208 9.1875 38.1042 9.33333 38.2083C9.72917 38.4792 10.1458 38.7292 10.5833 38.9583C10.7292 39.0417 10.8958 39.1458 11.0417 39.2292C11.4583 39.4583 11.8958 39.6667 12.3542 39.8542C12.5208 39.9375 12.6875 40.0208 12.8542 40.0833C13.3125 40.2708 13.7708 40.4375 14.2292 40.5833C14.3958 40.6458 14.5625 40.7083 14.7292 40.75C15.2292 40.8958 15.7292 41.0208 16.2292 41.1458C16.375 41.1875 16.5208 41.2292 16.6875 41.25C17.2708 41.375 17.8542 41.4583 18.4583 41.5208C18.5417 41.5208 18.625 41.5417 18.7083 41.5625C19.4167 41.625 20.125 41.6667 20.8333 41.6667C21.5417 41.6667 22.25 41.625 22.9375 41.5625C23.0208 41.5625 23.1042 41.5417 23.1875 41.5208C23.7917 41.4583 24.375 41.375 24.9583 41.25C25.1042 41.2292 25.25 41.1667 25.4167 41.1458C25.9167 41.0208 26.4375 40.9167 26.9167 40.75C27.0833 40.6875 27.25 40.625 27.4167 40.5833C27.875 40.4167 28.3542 40.2708 28.7917 40.0833C28.9583 40.0208 29.125 39.9375 29.2917 39.8542C29.7292 39.6667 30.1667 39.4583 30.6042 39.2292C30.7708 39.1458 30.9167 39.0417 31.0625 38.9583C31.4792 38.7083 31.8958 38.4792 32.3125 38.2083C32.4583 38.125 32.5833 38.0208 32.7292 37.9167C33.1458 37.625 33.5417 37.3333 33.9167 37.0208C34.0417 36.9167 34.1458 36.8125 34.2708 36.7292C34.5 36.5417 34.7292 36.3542 34.9375 36.1667C34.9375 36.1458 34.9375 36.1458 34.9167 36.125C39.0625 32.3125 41.6667 26.875 41.6667 20.8333ZM31.125 31.1875C25.4792 27.3958 16.2292 27.3958 10.5417 31.1875C9.625 31.7917 8.875 32.5 8.25 33.2708C5.08333 30.0625 3.125 25.6667 3.125 20.8333C3.125 11.0625 11.0625 3.125 20.8333 3.125C30.6042 3.125 38.5417 11.0625 38.5417 20.8333C38.5417 25.6667 36.5833 30.0625 33.4167 33.2708C32.8125 32.5 32.0417 31.7917 31.125 31.1875Z" fill="#FF738B"/>
<path d="M20.8125 9C16.5 9 13 12.5 13 16.8125C13 21.0417 16.3125 24.4792 20.7083 24.6042C20.7708 24.6042 20.8542 24.6042 20.8958 24.6042C20.9375 24.6042 21 24.6042 21.0417 24.6042C21.0625 24.6042 21.0833 24.6042 21.0833 24.6042C25.2917 24.4583 28.6042 21.0417 28.625 16.8125C28.625 12.5 25.125 9 20.8125 9Z" fill="#FF738B"/>
</svg>
