<svg width="425" height="425" viewBox="0 0 425 425" fill="none" xmlns="http://www.w3.org/2000/svg">
<path d="M214.625 226.313C213.385 226.135 211.792 226.135 210.375 226.313C179.208 225.25 154.417 199.75 154.417 168.406C154.417 136.354 180.271 110.323 212.5 110.323C244.552 110.323 270.583 136.354 270.583 168.406C270.406 199.75 245.792 225.25 214.625 226.313Z" stroke="#FF7380" stroke-width="6" stroke-linecap="round" stroke-linejoin="round"/>
<path d="M331.854 343.188C300.333 372.052 258.542 389.583 212.5 389.583C166.458 389.583 124.667 372.052 93.1459 343.188C94.9167 326.542 105.542 310.25 124.49 297.5C173.01 265.271 252.344 265.271 300.51 297.5C319.458 310.25 330.083 326.542 331.854 343.188Z" stroke="#FF7380" stroke-width="6" stroke-linecap="round" stroke-linejoin="round"/>
<path d="M212.5 389.583C310.3 389.583 389.583 310.3 389.583 212.5C389.583 114.7 310.3 35.4167 212.5 35.4167C114.7 35.4167 35.4167 114.7 35.4167 212.5C35.4167 310.3 114.7 389.583 212.5 389.583Z" stroke="#FF7380" stroke-width="6" stroke-linecap="round" stroke-linejoin="round"/>
</svg>
